<?xml version="1.0" encoding="utf-8"?>
<!-- Generator: Adobe Illustrator 23.0.0, SVG Export Plug-In . SVG Version: 6.00 Build 0)  -->
<svg version="1.1" id="Слой_1" xmlns="http://www.w3.org/2000/svg" xmlns:xlink="http://www.w3.org/1999/xlink" x="0px" y="0px"
	 viewBox="0 0 208.98 53.99" style="enable-background:new 0 0 208.98 53.99;" xml:space="preserve">
<style type="text/css">
	.st0{fill:#FFFFFF;}
</style>
<g>
	<g>
		<path class="st0" d="M179,0H29.98C15.07,0,2.99,12.09,2.99,26.99v0c0,14.91,12.09,26.99,26.99,26.99H179
			c14.91,0,26.99-12.09,26.99-26.99v0C205.99,12.09,193.91,0,179,0z M21.79,19.89L49.88,9.31c1.52-0.57,3.19-0.58,4.71-0.01
			l17.82,6.59c0.89,0.33,1.47,1.15,1.47,2.1c0,0.95-0.57,1.78-1.46,2.11L44.33,30.68c-0.76,0.29-1.56,0.43-2.37,0.43
			c-0.8,0-1.58-0.14-2.34-0.42L21.8,24.11c-0.89-0.33-1.47-1.16-1.47-2.1S20.9,20.22,21.79,19.89z M75.26,35.01
			c-0.16,0.35-0.44,0.62-0.8,0.75L44.32,47.11c-0.76,0.28-1.55,0.43-2.37,0.43c-0.8,0-1.58-0.14-2.33-0.42l-19.88-7.35
			c-0.36-0.13-0.65-0.4-0.81-0.75c-0.16-0.35-0.18-0.74-0.04-1.1c0.13-0.36,0.4-0.65,0.75-0.81c0.35-0.16,0.74-0.17,1.1-0.04
			l19.88,7.35c0.87,0.32,1.82,0.32,2.68-0.01l30.14-11.35c0.36-0.13,0.75-0.12,1.1,0.04c0.35,0.16,0.62,0.44,0.75,0.8
			C75.43,34.27,75.42,34.66,75.26,35.01z M18.9,32.46c0.13-0.36,0.4-0.65,0.75-0.81c0.35-0.16,0.74-0.18,1.1-0.04l20.04,7.41
			c0.76,0.28,1.6,0.28,2.36-0.01l30.3-11.41c0.36-0.13,0.75-0.12,1.1,0.04c0.35,0.16,0.62,0.44,0.75,0.8
			c0.28,0.74-0.1,1.57-0.84,1.85L44.16,41.7c-0.71,0.27-1.45,0.4-2.2,0.4c-0.74,0-1.47-0.13-2.17-0.39L19.75,34.3
			c-0.36-0.13-0.65-0.4-0.81-0.75C18.78,33.21,18.77,32.82,18.9,32.46z M75.26,24.05c-0.16,0.35-0.44,0.62-0.8,0.75L43.81,36.35
			c-0.59,0.22-1.21,0.34-1.85,0.34c-0.62,0-1.23-0.11-1.82-0.33l-20.39-7.54c-0.74-0.27-1.12-1.1-0.85-1.84
			c0.13-0.36,0.4-0.65,0.75-0.81c0.35-0.16,0.74-0.18,1.1-0.04l20.39,7.54c0.54,0.2,1.13,0.2,1.66-0.01l30.65-11.55
			c0.74-0.28,1.57,0.1,1.85,0.84C75.43,23.31,75.42,23.71,75.26,24.05z M102.42,23.53c-0.17,0.5-0.43,0.93-0.77,1.3
			c-0.34,0.37-0.75,0.55-1.23,0.55c-0.83,0-1.25-0.43-1.25-1.3c0.03-0.27,0.11-0.7,0.22-1.31c0.12-0.61,0.2-0.97,0.25-1.09
			c-0.08-0.27-0.4-0.5-0.96-0.71c-0.56-0.21-1.28-0.31-2.18-0.31c-0.98,0-1.75,0.27-2.3,0.82c-0.55,0.55-0.82,1.24-0.82,2.07
			c0,0.52,0.19,0.91,0.56,1.18c0.37,0.27,0.95,0.58,1.73,0.91l0.9,0.37l0.75,0.35c0.9,0.4,1.61,0.76,2.13,1.09
			c0.52,0.32,0.97,0.77,1.33,1.34c0.37,0.57,0.55,1.29,0.55,2.17c0,0.95-0.31,1.77-0.94,2.46s-1.49,1.21-2.61,1.57
			c-1.11,0.36-2.41,0.54-3.89,0.54c-1.1,0-2.13-0.17-3.08-0.51c-0.96-0.34-1.72-0.77-2.27-1.28c-0.56-0.52-0.84-1.02-0.84-1.52
			c0-0.48,0.21-0.88,0.62-1.18s1.01-0.52,1.77-0.64c0.08,0.48,0.36,0.92,0.85,1.3c0.48,0.38,1.04,0.69,1.68,0.91
			c0.64,0.23,1.2,0.34,1.68,0.34c0.88,0,1.67-0.17,2.36-0.52c0.69-0.35,1.04-0.83,1.04-1.45c0-0.52-0.25-0.94-0.74-1.29
			s-1.23-0.71-2.21-1.11l-1.32-0.6c-1.08-0.53-1.94-1.13-2.57-1.8c-0.63-0.67-0.95-1.55-0.95-2.64c0-1.22,0.34-2.2,1.02-2.96
			c0.68-0.76,1.51-1.3,2.48-1.63c0.97-0.33,1.93-0.5,2.86-0.5c1.48,0,2.7,0.19,3.66,0.57c0.96,0.38,1.65,0.86,2.08,1.45
			c0.43,0.58,0.65,1.18,0.65,1.8C102.68,22.6,102.59,23.03,102.42,23.53z M107.12,32.53c-0.07,0.27-0.1,0.56-0.1,0.87l0.02,0.7
			c0,0.28-0.09,0.48-0.26,0.6c-0.17,0.12-0.54,0.18-1.11,0.2c-0.55,0-0.97-0.06-1.25-0.17c-0.28-0.12-0.42-0.37-0.42-0.75
			c0-0.18,0.21-1.16,0.64-2.92c0.42-1.76,1-4.06,1.73-6.89l-0.57-0.75c-0.05-0.05-0.07-0.11-0.07-0.17c0-0.17,0.18-0.3,0.55-0.41
			c0.37-0.11,0.87-0.16,1.52-0.16c0.57,0,0.93,0.16,1.09,0.49c0.16,0.32,0.25,0.74,0.26,1.26
			C108.26,28.02,107.59,30.72,107.12,32.53z M108.35,21.68c-0.6,0-1.05-0.15-1.36-0.46c-0.31-0.31-0.46-0.71-0.46-1.21
			c0-0.52,0.16-0.97,0.49-1.37c0.33-0.4,0.78-0.6,1.36-0.6c0.62,0,1.15,0.19,1.61,0.57c0.46,0.38,0.69,0.81,0.69,1.3
			c0,0.48-0.23,0.9-0.7,1.25C109.5,21.5,108.96,21.68,108.35,21.68z M113.23,34.81c-0.03,0.1-0.2,0.23-0.51,0.39
			c-0.31,0.16-0.52,0.24-0.64,0.24c-0.47,0-0.91-0.12-1.35-0.35c-0.43-0.23-0.67-0.61-0.7-1.12c0.02-0.03,0.1-0.21,0.25-0.52
			c0.15-0.32,0.3-0.77,0.45-1.35c0.38-1.43,0.82-3.13,1.31-5.09s0.82-3.28,0.99-3.94l1.17-4.77c-0.02-0.13-0.03-0.82-0.03-2.07
			c0.05-0.22,0.24-0.39,0.56-0.52c0.32-0.13,0.62-0.2,0.89-0.2c0.42,0,0.85,0.14,1.28,0.42c0.44,0.28,0.67,0.62,0.69,1.02
			l-1.05,4.32C114.67,29.16,113.57,33.67,113.23,34.81z M129.98,24.1c-0.3,0.2-0.93,0.63-1.9,1.29c-0.97,0.66-1.91,1.32-2.83,2
			c-0.92,0.67-1.42,1.09-1.49,1.24c0.2,0.62,0.91,1.55,2.15,2.81s2.31,2.21,3.25,2.86c-0.02,0.32-0.22,0.66-0.6,1.02
			c-0.38,0.37-0.72,0.55-1,0.55c-0.27,0-0.47-0.03-0.62-0.1c-0.37-0.13-0.93-0.56-1.68-1.27c-0.76-0.72-1.5-1.52-2.23-2.42
			c-0.73-0.9-1.25-1.7-1.55-2.4c-0.48,1.93-0.83,3.26-1.04,3.99c-0.21,0.73-0.37,1.21-0.49,1.42c-0.12,0.22-0.27,0.32-0.45,0.32
			l-0.62,0.02c-1.1,0-1.67-0.44-1.72-1.32c0.33-0.81,0.57-1.49,0.7-2.02c1.65-6.11,2.82-10.71,3.52-13.8c0-0.22,0.06-0.55,0.19-1.01
			c0.12-0.46,0.29-0.87,0.5-1.24c0.21-0.37,0.44-0.55,0.69-0.55c0.42,0,0.85,0.14,1.28,0.42c0.44,0.28,0.67,0.62,0.69,1.02
			c-0.72,2.75-1.55,6.01-2.5,9.81c0.42-0.48,1.04-1.05,1.86-1.7c0.82-0.65,1.66-1.23,2.51-1.73c0.85-0.51,1.52-0.8,2.02-0.89
			c0.13,0,0.38,0.04,0.74,0.12c0.36,0.08,0.59,0.2,0.69,0.35c0.05,0.07,0.07,0.24,0.07,0.52C130.11,23.79,130.07,24.02,129.98,24.1z
			 M149.99,27.02c-0.83,1.08-1.92,1.88-3.26,2.41c-1.34,0.52-2.78,0.79-4.33,0.79c-0.47,0-0.81-0.01-1.02-0.02
			c-0.42,1.53-0.69,2.58-0.82,3.14c-0.13,0.58-0.34,1.03-0.61,1.35c-0.27,0.32-0.72,0.47-1.33,0.47c-0.52,0-0.89-0.09-1.14-0.26
			c-0.24-0.17-0.36-0.47-0.36-0.89c0-0.18,0.02-0.36,0.07-0.52l3.02-11.65c-0.87,0.25-1.52,0.59-1.97,1.02
			c-0.18-0.2-0.33-0.46-0.44-0.79c-0.11-0.32-0.16-0.64-0.16-0.96c0-0.23,0.07-0.42,0.21-0.56c0.14-0.14,0.34-0.27,0.59-0.39
			c2.43-1.26,4.96-1.9,7.59-1.9c1.01,0,1.92,0.2,2.71,0.59c0.79,0.39,1.41,0.95,1.85,1.67c0.44,0.72,0.66,1.56,0.66,2.51
			C151.24,24.61,150.83,25.94,149.99,27.02z M162.19,25.05c-0.36,0.17-0.83,0.27-1.41,0.32c-0.91,0.08-1.82,0.47-2.72,1.17
			c-0.9,0.7-1.55,1.52-1.95,2.47l-0.9,4.87c-0.02,0.12-0.05,0.32-0.09,0.6c-0.04,0.28-0.17,0.48-0.38,0.6
			c-0.21,0.12-0.55,0.17-1.04,0.17c-0.55,0-0.96-0.06-1.22-0.17c-0.27-0.12-0.41-0.37-0.42-0.75c0.13-0.67,0.35-1.85,0.65-3.54
			c0.1-0.56,0.26-1.42,0.48-2.56c0.22-1.14,0.38-1.97,0.5-2.48c0.17-1.18,0.4-1.96,0.7-2.33c0.3-0.37,0.67-0.56,1.1-0.56
			c0.58,0,0.97,0.08,1.16,0.25c0.19,0.17,0.29,0.38,0.31,0.65l-0.2,1.47c0.5-0.65,1.09-1.18,1.77-1.61c0.68-0.42,1.3-0.64,1.85-0.64
			c0.73,0,1.31,0.13,1.72,0.39c0.42,0.26,0.62,0.59,0.62,0.99C162.72,24.65,162.54,24.88,162.19,25.05z M167.76,24.42l-2.22,8.98
			l0.15,0.92c0,0.18-0.11,0.32-0.32,0.42c-0.22,0.1-0.63,0.15-1.25,0.15c-0.55,0-0.91-0.16-1.07-0.49
			c-0.17-0.32-0.26-0.74-0.27-1.26c0-0.3,0.74-3.29,2.22-8.98l-0.15-0.92c0-0.18,0.11-0.32,0.33-0.42c0.22-0.1,0.63-0.15,1.25-0.15
			c0.48,0,0.84,0.13,1.06,0.4c0.22,0.27,0.34,0.58,0.34,0.95C167.81,24.12,167.79,24.26,167.76,24.42z M168.58,21.15
			c-0.47,0.35-1.01,0.52-1.62,0.52c-0.6,0-1.05-0.15-1.36-0.46c-0.31-0.31-0.46-0.71-0.46-1.21c0-0.52,0.16-0.97,0.49-1.37
			c0.33-0.4,0.78-0.6,1.36-0.6c0.62,0,1.15,0.19,1.61,0.57c0.46,0.38,0.69,0.81,0.69,1.3C169.28,20.39,169.05,20.81,168.58,21.15z
			 M180.02,34.56c-0.2,0.38-0.48,0.69-0.84,0.91c-0.36,0.23-0.88,0.34-1.56,0.34c-0.4,0-0.69-0.13-0.87-0.4
			c-0.18-0.27-0.28-0.6-0.28-1c0-1.11,0.16-2.34,0.49-3.68c0.32-1.34,0.7-2.71,1.14-4.11c0.17-0.53,0.25-0.81,0.25-0.82
			c0-0.23-0.13-0.35-0.4-0.35c-0.37,0-0.92,0.26-1.66,0.77c-0.74,0.52-1.5,1.39-2.28,2.61c-0.78,1.22-1.41,2.82-1.9,4.8
			c-0.03,0.1-0.07,0.28-0.12,0.55c-0.05,0.27-0.18,0.45-0.4,0.56c-0.22,0.11-0.57,0.16-1.05,0.16c-0.55,0-0.95-0.06-1.21-0.17
			c-0.26-0.12-0.39-0.37-0.39-0.75c0.05-0.23,0.12-0.52,0.23-0.85c0.96-3.88,1.7-6.86,2.22-8.96l-0.65-0.75
			c-0.05-0.05-0.07-0.11-0.07-0.17c0-0.17,0.18-0.3,0.55-0.41c0.36-0.11,0.87-0.16,1.52-0.16c0.6,0,1.04,0.15,1.32,0.46
			c0.28,0.31,0.45,0.68,0.5,1.11l-0.45,1.62c0.35-0.48,0.84-0.94,1.47-1.39c0.63-0.44,1.27-0.79,1.92-1.06
			c0.65-0.27,1.18-0.4,1.6-0.4c0.88,0,1.52,0.16,1.92,0.49c0.4,0.32,0.6,0.84,0.6,1.54c-0.98,2.56-1.63,5.32-1.95,8.29L180.02,34.56
			z M192.13,25.04c-0.24,0.22-0.5,0.36-0.79,0.41l-3.49,0.35l-1.57,6.24c0,0.38,0.07,0.65,0.2,0.8c0.13,0.15,0.38,0.22,0.75,0.22
			c0.48,0,0.89-0.1,1.21-0.31c0.32-0.21,0.72-0.54,1.18-0.99c0.13-0.13,0.28-0.2,0.45-0.2c0.2,0,0.36,0.15,0.47,0.44
			c0.12,0.29,0.17,0.59,0.17,0.89c0,0.42-0.17,0.82-0.5,1.22c-0.33,0.4-0.82,0.72-1.45,0.97c-0.63,0.25-1.37,0.37-2.22,0.37
			c-1.13,0-1.93-0.26-2.41-0.77c-0.47-0.52-0.71-1.31-0.71-2.37c0-0.15,0.08-0.54,0.23-1.17c0.15-0.63,0.34-1.39,0.57-2.27l0.7-2.84
			l-1.52,0.12c-0.2,0-0.35-0.07-0.45-0.22c-0.1-0.15-0.15-0.33-0.15-0.55c0-0.42,0.15-0.83,0.45-1.25c0.03-0.05,0.2-0.1,0.5-0.15
			c0.3-0.05,0.67-0.1,1.1-0.15l0.67-0.07l0.57-2.57c0.17-0.43,0.42-0.77,0.76-1.01c0.34-0.24,0.66-0.36,0.96-0.36
			c0.33,0,0.62,0.1,0.85,0.3c0.23,0.2,0.36,0.43,0.38,0.7l-0.62,2.67c0.65-0.08,1.25-0.15,1.81-0.21c0.56-0.06,0.99-0.09,1.31-0.09
			c0.63,0,0.95,0.37,0.95,1.1C192.49,24.56,192.37,24.81,192.13,25.04z"/>
		<path class="st0" d="M145.45,20.81c-0.5,0-1.14,0.12-1.92,0.35c-0.77,3.06-1.31,5.3-1.62,6.71c0.2,0.02,0.48,0.02,0.85,0.02
			c0.9,0,1.78-0.18,2.65-0.54c0.86-0.36,1.58-0.89,2.15-1.61c0.56-0.72,0.85-1.58,0.85-2.59c0-0.73-0.26-1.31-0.77-1.72
			C147.11,21.01,146.39,20.81,145.45,20.81z"/>
	</g>
</g>
</svg>
