<?xml version="1.0" encoding="utf-8"?>
<!-- Generator: Adobe Illustrator 27.2.0, SVG Export Plug-In . SVG Version: 6.00 Build 0)  -->
<svg version="1.1" id="Шар_1" xmlns="http://www.w3.org/2000/svg" xmlns:xlink="http://www.w3.org/1999/xlink" x="0px" y="0px"
	 viewBox="0 0 42.5 42.5" style="enable-background:new 0 0 42.5 42.5;" xml:space="preserve">
<style type="text/css">
	.st0{fill-rule:evenodd;clip-rule:evenodd;fill:url(#SVGID_1_);}
	.st1{fill-rule:evenodd;clip-rule:evenodd;fill:url(#SVGID_00000178165131944413495040000015120796591448186804_);}
	.st2{fill-rule:evenodd;clip-rule:evenodd;fill:url(#SVGID_00000028286748006666203750000015663890976950378629_);}
	.st3{fill-rule:evenodd;clip-rule:evenodd;fill:url(#SVGID_00000101793453078529474050000017642360228340204947_);}
	.st4{fill-rule:evenodd;clip-rule:evenodd;fill:url(#SVGID_00000091728788410620630270000012111824232831440562_);}
	.st5{fill-rule:evenodd;clip-rule:evenodd;fill:url(#SVGID_00000017497177249147564810000000302735815830463672_);}
	.st6{fill-rule:evenodd;clip-rule:evenodd;fill:url(#SVGID_00000029744640857028718160000015499102157668516253_);}
	.st7{fill-rule:evenodd;clip-rule:evenodd;fill:url(#SVGID_00000083809167842119998840000007392545959647296679_);}
	.st8{fill-rule:evenodd;clip-rule:evenodd;fill:url(#SVGID_00000113331278299492937240000007807914010368996260_);}
	.st9{fill-rule:evenodd;clip-rule:evenodd;fill:url(#SVGID_00000092455350240931629130000015152434279032182688_);}
	.st10{fill-rule:evenodd;clip-rule:evenodd;fill:url(#SVGID_00000180336503623688317690000017009368413826881412_);}
	.st11{fill-rule:evenodd;clip-rule:evenodd;fill:url(#SVGID_00000119110894973131701590000016748999305763980980_);}
</style>
<g>
	<linearGradient id="SVGID_1_" gradientUnits="userSpaceOnUse" x1="9.0818" y1="44.0424" x2="33.5926" y2="1.5886">
		<stop  offset="0" style="stop-color:#D4AF37"/>
		<stop  offset="0.9944" style="stop-color:#BF9B30"/>
	</linearGradient>
	<path class="st0" d="M42.5,8.9c-0.1-1.8-1.3-3.4-3.1-3.6c-1.9-0.2-3.8,0-6.1,0c0.3,0.9,0.4,1.6,0.8,2.3c0.9,1.4,0.7,3.2-0.6,4.3
		c-1.2,1.1-3.1,1.1-4.4,0c-1.2-1.1-1.5-3-0.5-4.3c0.6-0.8,0.6-1.5,0.4-2.3c-5.1,0-10.2,0-15.6,0c0.3,0.9,0.4,1.6,0.8,2.3
		c0.8,1.4,0.7,3.1-0.5,4.3c-1.2,1.1-3,1.2-4.3,0.2c-1.3-1-1.6-2.8-0.8-4.3C9,7,9.2,6.2,9.6,5.2c-1.9,0-3.3,0.1-4.8,0
		C1.4,4.9,0,7.3,0,10c0.1,8.7,0,17.3,0,26c0,3,1.4,4.5,4.5,4.5c11.2,0,22.3,0,33.5,0c3.1,0,4.5-1.4,4.5-4.5c0-7.4,0-14.7,0-22.1
		C42.5,12.2,42.5,10.5,42.5,8.9z M37.2,36.9c-10.5,0-21,0-31.6,0c0-7.3,0-14.6,0-22c10.5,0,21,0,31.6,0
		C37.2,22.2,37.2,29.5,37.2,36.9z"/>
	
		<linearGradient id="SVGID_00000103965975220702729870000005356490567771352740_" gradientUnits="userSpaceOnUse" x1="29.3799" y1="10.3517" x2="33.5918" y2="3.0564">
		<stop  offset="0" style="stop-color:#D4AF37"/>
		<stop  offset="0.9944" style="stop-color:#BF9B30"/>
	</linearGradient>
	<path style="fill-rule:evenodd;clip-rule:evenodd;fill:url(#SVGID_00000103965975220702729870000005356490567771352740_);" d="
		M29.8,6.7c0-0.9,0-1.9,0-2.8c0-1,0.7-1.7,1.6-1.7c0.9,0,1.6,0.7,1.7,1.7c0,2,0,3.9,0,5.9c0,1-0.6,1.5-1.6,1.6
		c-0.9,0.1-1.6-0.7-1.7-1.7c0-0.1,0-0.2,0-0.2C29.8,8.5,29.8,7.6,29.8,6.7C29.8,6.7,29.8,6.7,29.8,6.7z"/>
	
		<linearGradient id="SVGID_00000019674916653463277650000006903315556563455390_" gradientUnits="userSpaceOnUse" x1="9.429" y1="10.3485" x2="13.6386" y2="3.0573">
		<stop  offset="0" style="stop-color:#D4AF37"/>
		<stop  offset="0.9944" style="stop-color:#BF9B30"/>
	</linearGradient>
	<path style="fill-rule:evenodd;clip-rule:evenodd;fill:url(#SVGID_00000019674916653463277650000006903315556563455390_);" d="
		M13.1,6.7c0,1,0,2,0,3c0,1-0.6,1.6-1.5,1.7c-0.9,0.1-1.7-0.6-1.7-1.6c-0.1-2-0.1-3.9,0-5.9c0-1,0.8-1.7,1.6-1.7
		c0.9,0,1.5,0.7,1.6,1.7C13.2,4.8,13.1,5.7,13.1,6.7C13.1,6.7,13.1,6.7,13.1,6.7z"/>
	
		<linearGradient id="SVGID_00000143611250529679212330000010439730581232704913_" gradientUnits="userSpaceOnUse" x1="29.5439" y1="22.0158" x2="32.5564" y2="16.798">
		<stop  offset="0" style="stop-color:#D4AF37"/>
		<stop  offset="0.9944" style="stop-color:#BF9B30"/>
	</linearGradient>
	<path style="fill-rule:evenodd;clip-rule:evenodd;fill:url(#SVGID_00000143611250529679212330000010439730581232704913_);" d="
		M28.8,21.6c0-1.5,0-2.9,0-4.4c1.5,0,2.9,0,4.4,0c0,1.5,0,2.9,0,4.4C31.8,21.6,30.4,21.6,28.8,21.6z"/>
	
		<linearGradient id="SVGID_00000142881332424256286170000012668335584076563390_" gradientUnits="userSpaceOnUse" x1="10.1783" y1="28.5239" x2="13.1949" y2="23.2989">
		<stop  offset="0" style="stop-color:#D4AF37"/>
		<stop  offset="0.9944" style="stop-color:#BF9B30"/>
	</linearGradient>
	<path style="fill-rule:evenodd;clip-rule:evenodd;fill:url(#SVGID_00000142881332424256286170000012668335584076563390_);" d="
		M13.9,28.1c-1.5,0-2.9,0-4.4,0c0-1.5,0-2.9,0-4.4c1.5,0,2.9,0,4.4,0C13.9,25.2,13.9,26.6,13.9,28.1z"/>
	
		<linearGradient id="SVGID_00000169545977444566314440000005237715931623093408_" gradientUnits="userSpaceOnUse" x1="29.5581" y1="28.5116" x2="32.5753" y2="23.2857">
		<stop  offset="0" style="stop-color:#D4AF37"/>
		<stop  offset="0.9944" style="stop-color:#BF9B30"/>
	</linearGradient>
	<path style="fill-rule:evenodd;clip-rule:evenodd;fill:url(#SVGID_00000169545977444566314440000005237715931623093408_);" d="
		M33.3,28.1c-1.5,0-2.9,0-4.5,0c0-1.5,0-2.9,0-4.4c1.5,0,2.9,0,4.5,0C33.3,25.2,33.3,26.6,33.3,28.1z"/>
	
		<linearGradient id="SVGID_00000168080972377484028600000010783510895098762898_" gradientUnits="userSpaceOnUse" x1="10.1657" y1="34.9738" x2="13.1888" y2="29.7376">
		<stop  offset="0" style="stop-color:#D4AF37"/>
		<stop  offset="0.9944" style="stop-color:#BF9B30"/>
	</linearGradient>
	<path style="fill-rule:evenodd;clip-rule:evenodd;fill:url(#SVGID_00000168080972377484028600000010783510895098762898_);" d="
		M9.5,34.6c0-1.5,0-2.9,0-4.4c1.5,0,2.9,0,4.4,0c0,1.5,0,2.9,0,4.4C12.4,34.6,11,34.6,9.5,34.6z"/>
	
		<linearGradient id="SVGID_00000006691879036858411950000005049538806497605035_" gradientUnits="userSpaceOnUse" x1="16.606" y1="34.9798" x2="19.6253" y2="29.7502">
		<stop  offset="0" style="stop-color:#D4AF37"/>
		<stop  offset="0.9944" style="stop-color:#BF9B30"/>
	</linearGradient>
	<path style="fill-rule:evenodd;clip-rule:evenodd;fill:url(#SVGID_00000006691879036858411950000005049538806497605035_);" d="
		M20.3,34.6c-1.5,0-2.9,0-4.4,0c0-1.5,0-2.9,0-4.5c1.4,0,2.9,0,4.4,0C20.3,31.6,20.3,33,20.3,34.6z"/>
	
		<linearGradient id="SVGID_00000014631821074220317730000012908344956265350289_" gradientUnits="userSpaceOnUse" x1="16.5988" y1="21.9829" x2="19.5835" y2="16.8133">
		<stop  offset="0" style="stop-color:#D4AF37"/>
		<stop  offset="0.9944" style="stop-color:#BF9B30"/>
	</linearGradient>
	<path style="fill-rule:evenodd;clip-rule:evenodd;fill:url(#SVGID_00000014631821074220317730000012908344956265350289_);" d="
		M15.9,21.6c0-1.5,0-2.9,0-4.3c1.5,0,2.9,0,4.4,0c0,1.4,0,2.8,0,4.3C18.9,21.6,17.4,21.6,15.9,21.6z"/>
	
		<linearGradient id="SVGID_00000005247482865563626100000003332044583634087042_" gradientUnits="userSpaceOnUse" x1="23.1178" y1="22.0218" x2="26.1257" y2="16.812">
		<stop  offset="0" style="stop-color:#D4AF37"/>
		<stop  offset="0.9944" style="stop-color:#BF9B30"/>
	</linearGradient>
	<path style="fill-rule:evenodd;clip-rule:evenodd;fill:url(#SVGID_00000005247482865563626100000003332044583634087042_);" d="
		M26.8,21.6c-1.5,0-2.9,0-4.4,0c0-1.5,0-2.9,0-4.4c1.5,0,2.9,0,4.4,0C26.8,18.7,26.8,20.1,26.8,21.6z"/>
	
		<linearGradient id="SVGID_00000088123330224131384610000010784852654297030801_" gradientUnits="userSpaceOnUse" x1="16.5954" y1="28.51" x2="19.6042" y2="23.2986">
		<stop  offset="0" style="stop-color:#D4AF37"/>
		<stop  offset="0.9944" style="stop-color:#BF9B30"/>
	</linearGradient>
	<path style="fill-rule:evenodd;clip-rule:evenodd;fill:url(#SVGID_00000088123330224131384610000010784852654297030801_);" d="
		M15.9,28.1c0-1.5,0-2.9,0-4.4c1.5,0,2.9,0,4.4,0c0,1.5,0,2.9,0,4.4C18.8,28.1,17.4,28.1,15.9,28.1z"/>
	
		<linearGradient id="SVGID_00000128475440450818449650000004364580544994236555_" gradientUnits="userSpaceOnUse" x1="23.1221" y1="28.4806" x2="26.1179" y2="23.2918">
		<stop  offset="0" style="stop-color:#D4AF37"/>
		<stop  offset="0.9944" style="stop-color:#BF9B30"/>
	</linearGradient>
	<path style="fill-rule:evenodd;clip-rule:evenodd;fill:url(#SVGID_00000128475440450818449650000004364580544994236555_);" d="
		M26.8,23.7c0,1.5,0,2.9,0,4.4c-1.5,0-2.9,0-4.4,0c0-1.5,0-2.9,0-4.4C23.9,23.7,25.3,23.7,26.8,23.7z"/>
</g>
</svg>
