<?xml version="1.0" encoding="utf-8"?>
<!-- Generator: Adobe Illustrator 27.2.0, SVG Export Plug-In . SVG Version: 6.00 Build 0)  -->
<svg version="1.1" id="Шар_1" xmlns="http://www.w3.org/2000/svg" xmlns:xlink="http://www.w3.org/1999/xlink" x="0px" y="0px"
	 viewBox="0 0 42.5 42.5" style="enable-background:new 0 0 42.5 42.5;" xml:space="preserve">
<style type="text/css">
	.st0{fill:url(#SVGID_1_);}
	.st1{fill:url(#SVGID_00000067217587412154093340000010739708574678228616_);}
	.st2{fill:url(#SVGID_00000093165330802540382680000006407413782477931688_);}
</style>
<g>
	<linearGradient id="SVGID_1_" gradientUnits="userSpaceOnUse" x1="-3.891804e-04" y1="21.2758" x2="42.5193" y2="21.2758">
		<stop  offset="0" style="stop-color:#D4AF37"/>
		<stop  offset="0.9944" style="stop-color:#BF9B30"/>
	</linearGradient>
	<path class="st0" d="M42.5,14.8l0-3.5c0-0.6,0-1.2-0.1-1.8C41.5,3.8,37,0,31.2,0c-6.7,0-13.3,0-20,0c-0.6,0-1.2,0-1.8,0.1
		C3.8,1.1,0,5.6,0,11.4c0,3.1,0,6.3,0,9.4c0,3.5,0,7,0,10.5c0,0.6,0,1.2,0.1,1.8c0.9,5.7,5.4,9.5,11.2,9.5c1.5,0,3,0,4.5,0l3.1,0
		l2.4,0l5.5,0c1.4,0,2.9,0,4.3,0l0,0c1.5,0,2.8-0.2,4-0.6c4.5-1.6,7.4-5.7,7.4-10.7C42.5,25.8,42.5,20.2,42.5,14.8z M37.6,24.5
		c0,2.2,0,4.5,0,6.8c0,3.1-2,5.6-5,6.2c-0.5,0.1-1,0.1-1.5,0.1c-1.1,0-2.3,0-3.4,0l-8.1,0c-2.7,0-5.4,0-8.1,0h0c-2.5,0-4.3-1-5.6-3
		c-0.6-0.9-0.9-2-0.9-3.2c0-2.3,0-4.6,0-6.9c0-4.3,0-8.8,0-13.2C5,7.7,7.6,5,11.1,5c3.3,0,6.7,0,10.1,0c3.3,0,6.7,0,10.1,0
		c3.6,0,6.2,2.7,6.2,6.3c0,1.2,0,2.3,0,3.5c0,0.5,0,1,0,1.6v5C37.5,22.4,37.6,23.4,37.6,24.5z"/>
	
		<linearGradient id="SVGID_00000073700966387403594360000013899158767993104806_" gradientUnits="userSpaceOnUse" x1="10.9613" y1="21.2758" x2="31.5588" y2="21.2758">
		<stop  offset="0" style="stop-color:#D4AF37"/>
		<stop  offset="0.9944" style="stop-color:#BF9B30"/>
	</linearGradient>
	<path style="fill:url(#SVGID_00000073700966387403594360000013899158767993104806_);" d="M21.3,11c-2.8,0-5.4,1.1-7.3,3
		c-1.9,1.9-3,4.6-3,7.4c0,2.7,1.1,5.3,3,7.2c1.9,1.9,4.5,3,7.3,3h0c2.8,0,5.4-1.1,7.3-3c1.9-2,3-4.5,3-7.3c0-2.8-1.1-5.3-3-7.3
		C26.6,12,24,11,21.3,11z M26.8,21.3c0,3-2.4,5.5-5.5,5.5l0,0c-3,0-5.5-2.5-5.5-5.5c0-1.5,0.5-2.8,1.6-3.9c1-1.1,2.4-1.6,3.9-1.7
		l0,0C24.3,15.8,26.8,18.2,26.8,21.3z"/>
	
		<linearGradient id="SVGID_00000083792456778489424550000002207458462175786376_" gradientUnits="userSpaceOnUse" x1="28.9411" y1="10.2371" x2="35.2027" y2="10.2371">
		<stop  offset="0" style="stop-color:#D4AF37"/>
		<stop  offset="0.9944" style="stop-color:#BF9B30"/>
	</linearGradient>
	<path style="fill:url(#SVGID_00000083792456778489424550000002207458462175786376_);" d="M32.1,7.1L32.1,7.1
		c-1.8,0-3.2,1.4-3.2,3.1c0,1.7,1.4,3.1,3.1,3.1l0,0c1.8,0,3.1-1.4,3.1-3.1C35.2,8.5,33.8,7.1,32.1,7.1z"/>
</g>
</svg>
