<?xml version="1.0" encoding="utf-8"?>
<!-- Generator: Adobe Illustrator 27.2.0, SVG Export Plug-In . SVG Version: 6.00 Build 0)  -->
<svg version="1.1" id="Capa_1" xmlns="http://www.w3.org/2000/svg" xmlns:xlink="http://www.w3.org/1999/xlink" x="0px" y="0px"
	 viewBox="0 0 42.5 42.5" style="enable-background:new 0 0 42.5 42.5;" xml:space="preserve">
<style type="text/css">
	.st0{fill:url(#XMLID_00000088834441951230790980000006427258106819005858_);}
	.st1{fill:url(#XMLID_00000021102345851918160970000010298464959783668359_);}
</style>
<g>
	<g id="XMLID_1844_">
		
			<linearGradient id="XMLID_00000021084456167976927010000000122753778234744974_" gradientUnits="userSpaceOnUse" x1="14.8134" y1="14.7075" x2="22.7996" y2="14.7075">
			<stop  offset="0" style="stop-color:#D4AF37"/>
			<stop  offset="0.9944" style="stop-color:#BF9B30"/>
		</linearGradient>
		<path id="XMLID_1845_" style="fill:url(#XMLID_00000021084456167976927010000000122753778234744974_);" d="M21.3,10.7
			c-3.6,0-6.4,2.9-6.4,6.4c0,0.8,0.7,1.5,1.5,1.5c0.8,0,1.5-0.7,1.5-1.5c0-1.9,1.5-3.4,3.4-3.4c0.8,0,1.5-0.7,1.5-1.5
			C22.8,11.4,22.1,10.7,21.3,10.7z"/>
		
			<linearGradient id="XMLID_00000158015505765165137820000000911842947190261418_" gradientUnits="userSpaceOnUse" x1="4.2967" y1="21.2598" x2="38.223" y2="21.2598">
			<stop  offset="0" style="stop-color:#D4AF37"/>
			<stop  offset="0.9944" style="stop-color:#BF9B30"/>
		</linearGradient>
		<path id="XMLID_1995_" style="fill:url(#XMLID_00000158015505765165137820000000911842947190261418_);" d="M38.2,17
			c0-9.6-7.9-17.3-17.6-17C12.2,0.3,5.2,6.9,4.4,15.3c-0.2,1.7-0.1,3.3,0.2,4.9l0,0c0,0,0,0.2,0.1,0.5C5,21.9,5.4,23,5.9,24.1
			c1.7,4,5.6,10.8,14.5,18.1c0.5,0.5,1.3,0.5,1.9,0c8.8-7.3,12.7-14.1,14.5-18.1c0.5-1.1,0.9-2.2,1.1-3.4c0.1-0.3,0.1-0.5,0.1-0.5
			l0,0C38.1,19.1,38.2,18.1,38.2,17z M21.3,27.5c-5.7,0-10.3-4.6-10.3-10.3c0-5.7,4.6-10.3,10.3-10.3s10.3,4.6,10.3,10.3
			S27,27.5,21.3,27.5z"/>
	</g>
</g>
</svg>
