<?xml version="1.0" encoding="utf-8"?>
<!-- Generator: Adobe Illustrator 27.2.0, SVG Export Plug-In . SVG Version: 6.00 Build 0)  -->
<svg version="1.1" id="Capa_1" xmlns="http://www.w3.org/2000/svg" xmlns:xlink="http://www.w3.org/1999/xlink" x="0px" y="0px"
	 viewBox="0 0 42.5 42.5" style="enable-background:new 0 0 42.5 42.5;" xml:space="preserve">
<style type="text/css">
	.st0{fill:url(#SVGID_1_);}
</style>
<g>
	<linearGradient id="SVGID_1_" gradientUnits="userSpaceOnUse" x1="1.4456" y1="21.2595" x2="41.074" y2="21.2595">
		<stop  offset="0" style="stop-color:#D4AF37"/>
		<stop  offset="0.9944" style="stop-color:#BF9B30"/>
	</linearGradient>
	<path class="st0" d="M36.6,29.6c-2.6-2.2-5.2-3.5-7.7-1.3l-1.5,1.3c-1.1,1-3.2,5.5-11.1-3.7c-8-9.2-3.2-10.6-2.1-11.5l1.5-1.3
		c2.5-2.2,1.6-5-0.2-7.8l-1.1-1.7C12.5,0.6,10.5-1.2,8,1L6.6,2.2c-1.1,0.8-4.2,3.5-5,8.5c-0.9,6,2,12.9,8.6,20.5
		c6.6,7.6,13,11.4,19.1,11.3c5.1-0.1,8.1-2.8,9.1-3.8l1.4-1.2c2.5-2.2,1-4.4-1.6-6.6L36.6,29.6z"/>
</g>
</svg>
