<?xml version="1.0" encoding="utf-8"?>
<!-- Generator: Adobe Illustrator 27.2.0, SVG Export Plug-In . SVG Version: 6.00 Build 0)  -->
<svg version="1.1" id="Шар_1" xmlns="http://www.w3.org/2000/svg" xmlns:xlink="http://www.w3.org/1999/xlink" x="0px" y="0px"
	 viewBox="0 0 42.5 42.5" style="enable-background:new 0 0 42.5 42.5;" xml:space="preserve">
<style type="text/css">
	.st0{fill-rule:evenodd;clip-rule:evenodd;fill:url(#SVGID_1_);}
	.st1{fill-rule:evenodd;clip-rule:evenodd;fill:url(#SVGID_00000080898020611006367320000002806142374227048832_);}
</style>
<g>
	<linearGradient id="SVGID_1_" gradientUnits="userSpaceOnUse" x1="0" y1="21.2598" x2="42.5197" y2="21.2598">
		<stop  offset="0" style="stop-color:#D4AF37"/>
		<stop  offset="0.9944" style="stop-color:#BF9B30"/>
	</linearGradient>
	<path class="st0" d="M22.9,42.5c-1.1,0-2.1,0-3.2,0c-0.2-0.1-0.3-0.1-0.5-0.2c-8.6-0.8-15.8-6.7-18.2-15c-0.4-1.5-0.6-3-0.9-4.5
		c0-1.1,0-2.1,0-3.2c0.1-0.2,0.1-0.3,0.2-0.5C1,10.6,6.9,3.4,15.2,0.9c1.5-0.4,3-0.6,4.5-0.9c1.1,0,2.1,0,3.2,0
		c0.2,0.1,0.3,0.1,0.5,0.2C32,1,39.2,6.9,41.6,15.2c0.4,1.5,0.6,3,0.9,4.5c0,1.1,0,2.1,0,3.2c-0.1,0.2-0.1,0.3-0.2,0.5
		c-0.8,8.6-6.7,15.8-15,18.2C25.9,42,24.4,42.2,22.9,42.5z M5.2,22.6c-0.9,0-1.7,0-2.4,0c0.3,9.4,8.8,17,17.2,17.1
		c0-0.8,0-1.6,0-2.4c0.9,0,1.7,0,2.5,0c0,0.8,0,1.6,0,2.4c10-0.5,17.1-9.5,17.1-17.2c-0.8,0-1.6,0-2.4,0c0-0.9,0-1.7,0-2.6
		c0.9,0,1.7,0,2.5,0c-0.5-9.4-8.6-16.8-17.2-17.1c0,0.8,0,1.6,0,2.4c-0.9,0-1.7,0-2.6,0c0-0.9,0-1.7,0-2.5C10,3.4,3,11.9,2.8,20
		c0.8,0,1.6,0,2.4,0C5.2,20.9,5.2,21.7,5.2,22.6z"/>
	
		<linearGradient id="SVGID_00000060743260197735410970000008527545404359765650_" gradientUnits="userSpaceOnUse" x1="10.7609" y1="19.2646" x2="30.9989" y2="19.2646">
		<stop  offset="0" style="stop-color:#D4AF37"/>
		<stop  offset="0.9944" style="stop-color:#BF9B30"/>
	</linearGradient>
	<path style="fill-rule:evenodd;clip-rule:evenodd;fill:url(#SVGID_00000060743260197735410970000008527545404359765650_);" d="
		M23.2,19.4c2-1.2,4.1-2.4,6.1-3.5c0.3-0.2,0.5-0.4,0.8-0.4c0.3,0,0.6,0.1,0.9,0.2c-0.1,0.3-0.1,0.7-0.3,0.9
		c-0.7,0.5-1.4,0.8-2.1,1.3c-1.4,0.8-2.8,1.6-4.2,2.4c-0.5,0.3-0.7,0.5-0.6,1.1c0.1,1.4-0.9,2.5-2.2,2.6c-1.5,0.2-2.6-0.6-3-2
		c-0.1-0.3-0.4-0.7-0.7-0.9c-2.1-1.3-4.2-2.5-6.4-3.7c-0.6-0.3-0.9-0.7-0.9-1.4c0.1-1,1.1-1.5,2.2-0.9c2.1,1.2,4.2,2.4,6.3,3.6
		c0.4,0.2,0.9,0.1,1.4,0.2c0.9,0.1,1.7,0.2,2.6,0.3C23.2,19.2,23.2,19.3,23.2,19.4z"/>
</g>
</svg>
